<mxfile host="app.diagrams.net" agent="Mozilla/5.0 (Windows NT 10.0; Win64; x64; rv:139.0) Gecko/20100101 Firefox/139.0" version="27.1.4">
  <diagram name="Seite-1" id="GMx1bsoJCzmxL5je-vcH">
    <mxGraphModel dx="1737" dy="938" grid="1" gridSize="10" guides="1" tooltips="1" connect="1" arrows="1" fold="1" page="1" pageScale="1" pageWidth="827" pageHeight="1169" math="0" shadow="0">
      <root>
        <mxCell id="0" />
        <mxCell id="1" parent="0" />
        <mxCell id="P992E0XuD9_Mefu6UTS9-5" value="&lt;p style=&quot;white-space: pre-wrap;&quot; dir=&quot;auto&quot;&gt;Class: TerminkalenderApplication&lt;/p&gt;" style="swimlane;childLayout=stackLayout;horizontal=1;startSize=50;horizontalStack=0;rounded=1;fontSize=14;fontStyle=0;strokeWidth=2;resizeParent=0;resizeLast=1;shadow=0;dashed=0;align=center;arcSize=4;whiteSpace=wrap;html=1;" vertex="1" parent="1">
          <mxGeometry x="330" y="140" width="250" height="90" as="geometry" />
        </mxCell>
        <mxCell id="P992E0XuD9_Mefu6UTS9-6" value="&lt;p style=&quot;white-space: pre-wrap;&quot; dir=&quot;auto&quot;&gt;+main(args: String[]): void&lt;/p&gt;" style="align=left;strokeColor=none;fillColor=none;spacingLeft=4;spacingRight=4;fontSize=12;verticalAlign=top;resizable=0;rotatable=0;part=1;html=1;whiteSpace=wrap;" vertex="1" parent="P992E0XuD9_Mefu6UTS9-5">
          <mxGeometry y="50" width="250" height="40" as="geometry" />
        </mxCell>
        <mxCell id="P992E0XuD9_Mefu6UTS9-9" value="&lt;p style=&quot;white-space: pre-wrap;&quot; dir=&quot;auto&quot;&gt;Class: Reservation&lt;/p&gt;" style="swimlane;childLayout=stackLayout;horizontal=1;startSize=50;horizontalStack=0;rounded=1;fontSize=14;fontStyle=0;strokeWidth=2;resizeParent=0;resizeLast=1;shadow=0;dashed=0;align=center;arcSize=4;whiteSpace=wrap;html=1;" vertex="1" parent="1">
          <mxGeometry x="120" y="270" width="250" height="250" as="geometry" />
        </mxCell>
        <mxCell id="P992E0XuD9_Mefu6UTS9-10" value="&lt;li&gt;&lt;span&gt;-id: Long&lt;/span&gt;&lt;/li&gt;&lt;li&gt;&lt;span&gt;-date: LocalDate&lt;/span&gt;&lt;/li&gt;&lt;li&gt;&lt;span&gt;-fromTime: LocalTime&lt;/span&gt;&lt;/li&gt;&lt;li&gt;&lt;span&gt;-toTime: LocalTime&lt;/span&gt;&lt;/li&gt;&lt;li&gt;&lt;span&gt;-room: String&lt;/span&gt;&lt;/li&gt;&lt;li&gt;&lt;span&gt;-comment: String&lt;/span&gt;&lt;/li&gt;&lt;li&gt;&lt;span&gt;-publicKey: String&lt;/span&gt;&lt;/li&gt;&lt;li&gt;&lt;span&gt;-privateKey: String&lt;/span&gt;&lt;/li&gt;&lt;li&gt;&lt;span&gt;-participants: List&amp;lt;Participant&amp;gt;&lt;br&gt;&lt;br&gt;&lt;/span&gt;&lt;br/&gt;&lt;/li&gt;&lt;li&gt;&lt;span&gt;+generateKeys(): void&lt;/span&gt;&lt;/li&gt;&lt;li&gt;&lt;span&gt;+addParticipant(participant: Participant): void&lt;/span&gt;&lt;/li&gt;&lt;div&gt;&lt;br/&gt;&lt;/div&gt;" style="align=left;strokeColor=none;fillColor=none;spacingLeft=4;spacingRight=4;fontSize=12;verticalAlign=top;resizable=0;rotatable=0;part=1;html=1;whiteSpace=wrap;" vertex="1" parent="P992E0XuD9_Mefu6UTS9-9">
          <mxGeometry y="50" width="250" height="200" as="geometry" />
        </mxCell>
        <mxCell id="P992E0XuD9_Mefu6UTS9-11" value="" style="endArrow=none;html=1;rounded=0;entryX=1;entryY=0.75;entryDx=0;entryDy=0;exitX=0;exitY=0.75;exitDx=0;exitDy=0;" edge="1" parent="P992E0XuD9_Mefu6UTS9-9" source="P992E0XuD9_Mefu6UTS9-10" target="P992E0XuD9_Mefu6UTS9-10">
          <mxGeometry relative="1" as="geometry">
            <mxPoint x="-180" y="250" as="sourcePoint" />
            <mxPoint x="-20" y="250" as="targetPoint" />
          </mxGeometry>
        </mxCell>
        <mxCell id="P992E0XuD9_Mefu6UTS9-12" value="&lt;p style=&quot;white-space: pre-wrap;&quot; dir=&quot;auto&quot;&gt;Class: Participant&lt;/p&gt;" style="swimlane;childLayout=stackLayout;horizontal=1;startSize=50;horizontalStack=0;rounded=1;fontSize=14;fontStyle=0;strokeWidth=2;resizeParent=0;resizeLast=1;shadow=0;dashed=0;align=center;arcSize=4;whiteSpace=wrap;html=1;" vertex="1" parent="1">
          <mxGeometry x="500" y="290" width="250" height="190" as="geometry" />
        </mxCell>
        <mxCell id="P992E0XuD9_Mefu6UTS9-14" value="" style="endArrow=none;html=1;rounded=0;entryX=1;entryY=0.75;entryDx=0;entryDy=0;exitX=0;exitY=0.75;exitDx=0;exitDy=0;" edge="1" parent="P992E0XuD9_Mefu6UTS9-12">
          <mxGeometry relative="1" as="geometry">
            <mxPoint y="130" as="sourcePoint" />
            <mxPoint x="250" y="130" as="targetPoint" />
          </mxGeometry>
        </mxCell>
        <mxCell id="P992E0XuD9_Mefu6UTS9-13" value="&lt;li&gt;&lt;span&gt;-id: Long&lt;/span&gt;&lt;/li&gt;&lt;li&gt;&lt;span&gt;-firstName: String&lt;/span&gt;&lt;/li&gt;&lt;li&gt;&lt;span&gt;-lastName: String&lt;/span&gt;&lt;/li&gt;&lt;li&gt;&lt;span&gt;-reservation: Reservation&lt;br&gt;&lt;br&gt;&lt;/span&gt;&lt;br/&gt;&lt;/li&gt;&lt;li&gt;&lt;span&gt;+getFullName(): String&lt;/span&gt;&lt;/li&gt;&lt;li&gt;&lt;span&gt;+setReservation(reservation: Reservation): void&lt;/span&gt;&lt;/li&gt;&lt;div&gt;&lt;br/&gt;&lt;/div&gt;" style="align=left;strokeColor=none;fillColor=none;spacingLeft=4;spacingRight=4;fontSize=12;verticalAlign=top;resizable=0;rotatable=0;part=1;html=1;whiteSpace=wrap;" vertex="1" parent="P992E0XuD9_Mefu6UTS9-12">
          <mxGeometry y="50" width="250" height="140" as="geometry" />
        </mxCell>
        <mxCell id="P992E0XuD9_Mefu6UTS9-59" style="edgeStyle=orthogonalEdgeStyle;rounded=0;orthogonalLoop=1;jettySize=auto;html=1;exitX=1;exitY=0.5;exitDx=0;exitDy=0;entryX=1;entryY=0.5;entryDx=0;entryDy=0;" edge="1" parent="1" source="P992E0XuD9_Mefu6UTS9-15" target="P992E0XuD9_Mefu6UTS9-39">
          <mxGeometry relative="1" as="geometry">
            <Array as="points">
              <mxPoint x="360" y="1035" />
              <mxPoint x="360" y="1274" />
            </Array>
          </mxGeometry>
        </mxCell>
        <mxCell id="P992E0XuD9_Mefu6UTS9-68" style="edgeStyle=orthogonalEdgeStyle;rounded=0;orthogonalLoop=1;jettySize=auto;html=1;exitX=1;exitY=0.25;exitDx=0;exitDy=0;entryX=0;entryY=0.5;entryDx=0;entryDy=0;" edge="1" parent="1" source="P992E0XuD9_Mefu6UTS9-15" target="P992E0XuD9_Mefu6UTS9-34">
          <mxGeometry relative="1" as="geometry" />
        </mxCell>
        <mxCell id="P992E0XuD9_Mefu6UTS9-15" value="&lt;p style=&quot;white-space: pre-wrap;&quot; dir=&quot;auto&quot;&gt;Class: HomeController&lt;/p&gt;" style="swimlane;childLayout=stackLayout;horizontal=1;startSize=50;horizontalStack=0;rounded=1;fontSize=14;fontStyle=0;strokeWidth=2;resizeParent=0;resizeLast=1;shadow=0;dashed=0;align=center;arcSize=4;whiteSpace=wrap;html=1;" vertex="1" parent="1">
          <mxGeometry x="130" y="980" width="220" height="110" as="geometry" />
        </mxCell>
        <mxCell id="P992E0XuD9_Mefu6UTS9-17" value="&lt;li&gt;&lt;span&gt;+home(): String&lt;/span&gt;&lt;/li&gt;&lt;li&gt;&lt;span&gt;+accessReservation(key: String, model: Model): String&lt;/span&gt;&lt;/li&gt;" style="align=left;strokeColor=none;fillColor=none;spacingLeft=4;spacingRight=4;fontSize=12;verticalAlign=top;resizable=0;rotatable=0;part=1;html=1;whiteSpace=wrap;" vertex="1" parent="P992E0XuD9_Mefu6UTS9-15">
          <mxGeometry y="50" width="220" height="60" as="geometry" />
        </mxCell>
        <mxCell id="P992E0XuD9_Mefu6UTS9-63" style="edgeStyle=orthogonalEdgeStyle;rounded=0;orthogonalLoop=1;jettySize=auto;html=1;exitX=0;exitY=0.25;exitDx=0;exitDy=0;entryX=0;entryY=0.5;entryDx=0;entryDy=0;" edge="1" parent="1" source="P992E0XuD9_Mefu6UTS9-19" target="P992E0XuD9_Mefu6UTS9-13">
          <mxGeometry relative="1" as="geometry" />
        </mxCell>
        <mxCell id="P992E0XuD9_Mefu6UTS9-19" value="&lt;p style=&quot;white-space: pre-wrap;&quot; dir=&quot;auto&quot;&gt;Class: ReservationController&lt;/p&gt;" style="swimlane;childLayout=stackLayout;horizontal=1;startSize=50;horizontalStack=0;rounded=1;fontSize=14;fontStyle=0;strokeWidth=2;resizeParent=0;resizeLast=1;shadow=0;dashed=0;align=center;arcSize=4;whiteSpace=wrap;html=1;" vertex="1" parent="1">
          <mxGeometry x="505" y="510" width="220" height="220" as="geometry" />
        </mxCell>
        <mxCell id="P992E0XuD9_Mefu6UTS9-22" value="" style="endArrow=none;html=1;rounded=0;entryX=1.01;entryY=0.358;entryDx=0;entryDy=0;exitX=0;exitY=0.5;exitDx=0;exitDy=0;entryPerimeter=0;" edge="1" parent="P992E0XuD9_Mefu6UTS9-19" source="P992E0XuD9_Mefu6UTS9-19" target="P992E0XuD9_Mefu6UTS9-20">
          <mxGeometry relative="1" as="geometry">
            <mxPoint x="10" y="109.5" as="sourcePoint" />
            <mxPoint x="260" y="109.5" as="targetPoint" />
          </mxGeometry>
        </mxCell>
        <mxCell id="P992E0XuD9_Mefu6UTS9-20" value="&lt;p style=&quot;white-space: pre-wrap;&quot; dir=&quot;auto&quot;&gt;-reservationService: ReservationService&lt;/p&gt;&lt;p style=&quot;white-space: pre-wrap;&quot; dir=&quot;auto&quot;&gt;&lt;span style=&quot;white-space: normal;&quot;&gt;&lt;br&gt;+showReservationForm(model: Model): String&lt;br&gt;+createReservation(reservation: Reservation, result: BindingResult, participantsString: String, model: Model): String&lt;/span&gt;&lt;/p&gt;&lt;br&gt;&lt;p&gt;&lt;/p&gt;" style="align=left;strokeColor=none;fillColor=none;spacingLeft=4;spacingRight=4;fontSize=12;verticalAlign=top;resizable=0;rotatable=0;part=1;html=1;whiteSpace=wrap;" vertex="1" parent="P992E0XuD9_Mefu6UTS9-19">
          <mxGeometry y="50" width="220" height="170" as="geometry" />
        </mxCell>
        <mxCell id="P992E0XuD9_Mefu6UTS9-23" value="&lt;p style=&quot;white-space: pre-wrap;&quot; dir=&quot;auto&quot;&gt;Class: ReservationService&lt;/p&gt;" style="swimlane;childLayout=stackLayout;horizontal=1;startSize=50;horizontalStack=0;rounded=1;fontSize=14;fontStyle=0;strokeWidth=2;resizeParent=0;resizeLast=1;shadow=0;dashed=0;align=center;arcSize=4;whiteSpace=wrap;html=1;" vertex="1" parent="1">
          <mxGeometry x="145" y="540" width="200" height="250" as="geometry" />
        </mxCell>
        <mxCell id="P992E0XuD9_Mefu6UTS9-24" value="" style="endArrow=none;html=1;rounded=0;entryX=0.997;entryY=0.404;entryDx=0;entryDy=0;exitX=0.001;exitY=0.4;exitDx=0;exitDy=0;exitPerimeter=0;entryPerimeter=0;" edge="1" parent="P992E0XuD9_Mefu6UTS9-23" source="P992E0XuD9_Mefu6UTS9-25" target="P992E0XuD9_Mefu6UTS9-25">
          <mxGeometry relative="1" as="geometry">
            <mxPoint x="10" y="109.5" as="sourcePoint" />
            <mxPoint x="260" y="109.5" as="targetPoint" />
          </mxGeometry>
        </mxCell>
        <mxCell id="P992E0XuD9_Mefu6UTS9-25" value="&lt;li&gt;&lt;span&gt;-reservationRepository: ReservationRepository&lt;/span&gt;&lt;/li&gt;&lt;li&gt;&lt;span&gt;-participantRepository: ParticipantRepository&lt;br&gt;&lt;br&gt;&lt;/span&gt;&lt;br/&gt;&lt;/li&gt;&lt;li&gt;&lt;span&gt;+saveReservation(reservation: Reservation, participantNames: String): Reservation&lt;/span&gt;&lt;/li&gt;&lt;li&gt;&lt;span&gt;+isRoomAvailable(room: String, date: LocalDate, fromTime: LocalTime, toTime: LocalTime): boolean&lt;/span&gt;&lt;/li&gt;&lt;div&gt;&lt;br/&gt;&lt;/div&gt;" style="align=left;strokeColor=none;fillColor=none;spacingLeft=4;spacingRight=4;fontSize=12;verticalAlign=top;resizable=0;rotatable=0;part=1;html=1;whiteSpace=wrap;" vertex="1" parent="P992E0XuD9_Mefu6UTS9-23">
          <mxGeometry y="50" width="200" height="200" as="geometry" />
        </mxCell>
        <mxCell id="P992E0XuD9_Mefu6UTS9-26" value="&lt;p style=&quot;white-space: pre-wrap;&quot; dir=&quot;auto&quot;&gt;Interface: ReservationRepository&lt;/p&gt;" style="swimlane;childLayout=stackLayout;horizontal=1;startSize=50;horizontalStack=0;rounded=1;fontSize=14;fontStyle=0;strokeWidth=2;resizeParent=0;resizeLast=1;shadow=0;dashed=0;align=center;arcSize=4;whiteSpace=wrap;html=1;" vertex="1" parent="1">
          <mxGeometry x="145" y="817.25" width="200" height="155.5" as="geometry" />
        </mxCell>
        <mxCell id="P992E0XuD9_Mefu6UTS9-28" value="&lt;li&gt;&lt;span&gt;+findByPrivateKey(privateKey: String): Optional&amp;lt;Reservation&amp;gt;&lt;/span&gt;&lt;/li&gt;&lt;li&gt;&lt;span&gt;+isRoomOccupied(room: String, date: LocalDate, fromTime: LocalTime, toTime: LocalTime): boolean&lt;/span&gt;&lt;/li&gt;" style="align=left;strokeColor=none;fillColor=none;spacingLeft=4;spacingRight=4;fontSize=12;verticalAlign=top;resizable=0;rotatable=0;part=1;html=1;whiteSpace=wrap;" vertex="1" parent="P992E0XuD9_Mefu6UTS9-26">
          <mxGeometry y="50" width="200" height="105.5" as="geometry" />
        </mxCell>
        <mxCell id="P992E0XuD9_Mefu6UTS9-29" value="&lt;p style=&quot;white-space: pre-wrap;&quot; dir=&quot;auto&quot;&gt;Interface: ParticipantRepository&lt;/p&gt;" style="swimlane;childLayout=stackLayout;horizontal=1;startSize=50;horizontalStack=0;rounded=1;fontSize=14;fontStyle=0;strokeWidth=2;resizeParent=0;resizeLast=1;shadow=0;dashed=0;align=center;arcSize=4;whiteSpace=wrap;html=1;" vertex="1" parent="1">
          <mxGeometry x="505" y="750" width="220" height="120" as="geometry" />
        </mxCell>
        <mxCell id="P992E0XuD9_Mefu6UTS9-30" value="&lt;li&gt;&lt;span&gt;+findByReservationId(reservationId: Long): List&amp;lt;Participant&amp;gt;&lt;/span&gt;&lt;/li&gt;&lt;li&gt;&lt;span&gt;+deleteByReservationId(reservationId: Long): void&lt;/span&gt;&lt;/li&gt;" style="align=left;strokeColor=none;fillColor=none;spacingLeft=4;spacingRight=4;fontSize=12;verticalAlign=top;resizable=0;rotatable=0;part=1;html=1;whiteSpace=wrap;" vertex="1" parent="P992E0XuD9_Mefu6UTS9-29">
          <mxGeometry y="50" width="220" height="70" as="geometry" />
        </mxCell>
        <mxCell id="P992E0XuD9_Mefu6UTS9-58" style="edgeStyle=orthogonalEdgeStyle;rounded=0;orthogonalLoop=1;jettySize=auto;html=1;exitX=0;exitY=0.5;exitDx=0;exitDy=0;entryX=0;entryY=0.75;entryDx=0;entryDy=0;" edge="1" parent="1" source="P992E0XuD9_Mefu6UTS9-31" target="P992E0XuD9_Mefu6UTS9-30">
          <mxGeometry relative="1" as="geometry" />
        </mxCell>
        <mxCell id="P992E0XuD9_Mefu6UTS9-64" style="edgeStyle=orthogonalEdgeStyle;rounded=0;orthogonalLoop=1;jettySize=auto;html=1;exitX=0;exitY=0.75;exitDx=0;exitDy=0;entryX=1;entryY=0.5;entryDx=0;entryDy=0;" edge="1" parent="1" source="P992E0XuD9_Mefu6UTS9-31" target="P992E0XuD9_Mefu6UTS9-10">
          <mxGeometry relative="1" as="geometry" />
        </mxCell>
        <mxCell id="P992E0XuD9_Mefu6UTS9-31" value="&lt;p style=&quot;white-space: pre-wrap;&quot; dir=&quot;auto&quot;&gt;Class: DataInitializer&lt;/p&gt;" style="swimlane;childLayout=stackLayout;horizontal=1;startSize=50;horizontalStack=0;rounded=1;fontSize=14;fontStyle=0;strokeWidth=2;resizeParent=0;resizeLast=1;shadow=0;dashed=0;align=center;arcSize=4;whiteSpace=wrap;html=1;" vertex="1" parent="1">
          <mxGeometry x="480" y="900" width="260" height="130" as="geometry" />
        </mxCell>
        <mxCell id="P992E0XuD9_Mefu6UTS9-32" value="&lt;p style=&quot;white-space: pre-wrap;&quot; dir=&quot;auto&quot;&gt;-reservationRepository: ReservationRepository&lt;/p&gt;&lt;p style=&quot;white-space: pre-wrap;&quot; dir=&quot;auto&quot;&gt;&lt;/p&gt;&lt;li&gt;&lt;span&gt;+run(args: String[]): void&lt;/span&gt;&lt;/li&gt;&lt;li&gt;&lt;span&gt;+createTestReservations(): void&lt;/span&gt;&lt;/li&gt;&lt;br&gt;&lt;p&gt;&lt;/p&gt;" style="align=left;strokeColor=none;fillColor=none;spacingLeft=4;spacingRight=4;fontSize=12;verticalAlign=top;resizable=0;rotatable=0;part=1;html=1;whiteSpace=wrap;" vertex="1" parent="P992E0XuD9_Mefu6UTS9-31">
          <mxGeometry y="50" width="260" height="80" as="geometry" />
        </mxCell>
        <mxCell id="P992E0XuD9_Mefu6UTS9-33" value="" style="endArrow=none;html=1;rounded=0;entryX=1;entryY=0.5;entryDx=0;entryDy=0;exitX=0;exitY=0.5;exitDx=0;exitDy=0;" edge="1" parent="P992E0XuD9_Mefu6UTS9-31" source="P992E0XuD9_Mefu6UTS9-32" target="P992E0XuD9_Mefu6UTS9-32">
          <mxGeometry relative="1" as="geometry">
            <mxPoint x="-60" y="-60" as="sourcePoint" />
            <mxPoint x="139" y="-59" as="targetPoint" />
          </mxGeometry>
        </mxCell>
        <mxCell id="P992E0XuD9_Mefu6UTS9-34" value="&lt;p style=&quot;white-space: pre-wrap;&quot; dir=&quot;auto&quot;&gt;Component: index.html&lt;/p&gt;" style="swimlane;childLayout=stackLayout;horizontal=1;startSize=50;horizontalStack=0;rounded=1;fontSize=14;fontStyle=0;strokeWidth=2;resizeParent=0;resizeLast=1;shadow=0;dashed=0;align=center;arcSize=4;whiteSpace=wrap;html=1;" vertex="1" parent="1">
          <mxGeometry x="430" y="1050" width="260" height="50" as="geometry" />
        </mxCell>
        <mxCell id="P992E0XuD9_Mefu6UTS9-37" value="&lt;p style=&quot;white-space: pre-wrap;&quot; dir=&quot;auto&quot;&gt;Component: create-reservation.html&lt;/p&gt;" style="swimlane;childLayout=stackLayout;horizontal=1;startSize=50;horizontalStack=0;rounded=1;fontSize=14;fontStyle=0;strokeWidth=2;resizeParent=0;resizeLast=1;shadow=0;dashed=0;align=center;arcSize=4;whiteSpace=wrap;html=1;" vertex="1" parent="1">
          <mxGeometry x="430" y="1119" width="260" height="50" as="geometry" />
        </mxCell>
        <mxCell id="P992E0XuD9_Mefu6UTS9-38" value="&lt;p style=&quot;white-space: pre-wrap;&quot; dir=&quot;auto&quot;&gt;Component: edit-reservation.html&lt;/p&gt;" style="swimlane;childLayout=stackLayout;horizontal=1;startSize=50;horizontalStack=0;rounded=1;fontSize=14;fontStyle=0;strokeWidth=2;resizeParent=0;resizeLast=1;shadow=0;dashed=0;align=center;arcSize=4;whiteSpace=wrap;html=1;" vertex="1" parent="1">
          <mxGeometry x="430" y="1180" width="260" height="50" as="geometry" />
        </mxCell>
        <mxCell id="P992E0XuD9_Mefu6UTS9-39" value="&lt;p style=&quot;white-space: pre-wrap;&quot; dir=&quot;auto&quot;&gt;Component: view-reservation.html&lt;/p&gt;" style="swimlane;childLayout=stackLayout;horizontal=1;startSize=50;horizontalStack=0;rounded=1;fontSize=14;fontStyle=0;strokeWidth=2;resizeParent=0;resizeLast=1;shadow=0;dashed=0;align=center;arcSize=4;whiteSpace=wrap;html=1;" vertex="1" parent="1">
          <mxGeometry x="430" y="1249" width="260" height="50" as="geometry" />
        </mxCell>
        <mxCell id="P992E0XuD9_Mefu6UTS9-40" value="&lt;p style=&quot;white-space: pre-wrap;&quot; dir=&quot;auto&quot;&gt;Component: confirmation.html&lt;/p&gt;" style="swimlane;childLayout=stackLayout;horizontal=1;startSize=50;horizontalStack=0;rounded=1;fontSize=14;fontStyle=0;strokeWidth=2;resizeParent=0;resizeLast=1;shadow=0;dashed=0;align=center;arcSize=4;whiteSpace=wrap;html=1;" vertex="1" parent="1">
          <mxGeometry x="430" y="1320" width="260" height="50" as="geometry" />
        </mxCell>
        <mxCell id="P992E0XuD9_Mefu6UTS9-41" value="&lt;p style=&quot;white-space: pre-wrap;&quot; dir=&quot;auto&quot;&gt;Component: list-reservations.html&lt;/p&gt;" style="swimlane;childLayout=stackLayout;horizontal=1;startSize=50;horizontalStack=0;rounded=1;fontSize=14;fontStyle=0;strokeWidth=2;resizeParent=0;resizeLast=1;shadow=0;dashed=0;align=center;arcSize=4;whiteSpace=wrap;html=1;" vertex="1" parent="1">
          <mxGeometry x="460" y="1390" width="260" height="50" as="geometry" />
        </mxCell>
        <mxCell id="P992E0XuD9_Mefu6UTS9-42" value="" style="edgeStyle=entityRelationEdgeStyle;fontSize=12;html=1;endArrow=ERoneToMany;rounded=0;entryX=0.002;entryY=0.157;entryDx=0;entryDy=0;entryPerimeter=0;exitX=1.011;exitY=0.09;exitDx=0;exitDy=0;exitPerimeter=0;" edge="1" parent="1" source="P992E0XuD9_Mefu6UTS9-9" target="P992E0XuD9_Mefu6UTS9-12">
          <mxGeometry width="100" height="100" relative="1" as="geometry">
            <mxPoint x="370" y="270" as="sourcePoint" />
            <mxPoint x="870" y="180" as="targetPoint" />
          </mxGeometry>
        </mxCell>
        <mxCell id="P992E0XuD9_Mefu6UTS9-54" style="edgeStyle=orthogonalEdgeStyle;rounded=0;orthogonalLoop=1;jettySize=auto;html=1;exitX=1;exitY=0.25;exitDx=0;exitDy=0;entryX=0;entryY=0.5;entryDx=0;entryDy=0;" edge="1" parent="1" source="P992E0XuD9_Mefu6UTS9-25" target="P992E0XuD9_Mefu6UTS9-30">
          <mxGeometry relative="1" as="geometry" />
        </mxCell>
        <mxCell id="P992E0XuD9_Mefu6UTS9-56" style="edgeStyle=orthogonalEdgeStyle;rounded=0;orthogonalLoop=1;jettySize=auto;html=1;exitX=0;exitY=0.5;exitDx=0;exitDy=0;entryX=1.019;entryY=0.101;entryDx=0;entryDy=0;entryPerimeter=0;" edge="1" parent="1" source="P992E0XuD9_Mefu6UTS9-20" target="P992E0XuD9_Mefu6UTS9-25">
          <mxGeometry relative="1" as="geometry">
            <Array as="points">
              <mxPoint x="480" y="645" />
              <mxPoint x="480" y="610" />
            </Array>
          </mxGeometry>
        </mxCell>
        <mxCell id="P992E0XuD9_Mefu6UTS9-57" style="edgeStyle=orthogonalEdgeStyle;rounded=0;orthogonalLoop=1;jettySize=auto;html=1;exitX=1;exitY=0.5;exitDx=0;exitDy=0;entryX=1;entryY=0.25;entryDx=0;entryDy=0;" edge="1" parent="1" source="P992E0XuD9_Mefu6UTS9-25" target="P992E0XuD9_Mefu6UTS9-28">
          <mxGeometry relative="1" as="geometry" />
        </mxCell>
        <mxCell id="P992E0XuD9_Mefu6UTS9-60" style="edgeStyle=orthogonalEdgeStyle;rounded=0;orthogonalLoop=1;jettySize=auto;html=1;exitX=1;exitY=0.25;exitDx=0;exitDy=0;entryX=1;entryY=0.5;entryDx=0;entryDy=0;" edge="1" parent="1" source="P992E0XuD9_Mefu6UTS9-20" target="P992E0XuD9_Mefu6UTS9-37">
          <mxGeometry relative="1" as="geometry">
            <Array as="points">
              <mxPoint x="770" y="603" />
              <mxPoint x="770" y="1145" />
            </Array>
          </mxGeometry>
        </mxCell>
        <mxCell id="P992E0XuD9_Mefu6UTS9-61" style="edgeStyle=orthogonalEdgeStyle;rounded=0;orthogonalLoop=1;jettySize=auto;html=1;exitX=1;exitY=0.5;exitDx=0;exitDy=0;entryX=1;entryY=0.5;entryDx=0;entryDy=0;" edge="1" parent="1" source="P992E0XuD9_Mefu6UTS9-20" target="P992E0XuD9_Mefu6UTS9-40">
          <mxGeometry relative="1" as="geometry">
            <Array as="points">
              <mxPoint x="760" y="645" />
              <mxPoint x="760" y="1345" />
            </Array>
          </mxGeometry>
        </mxCell>
        <mxCell id="P992E0XuD9_Mefu6UTS9-62" style="edgeStyle=orthogonalEdgeStyle;rounded=0;orthogonalLoop=1;jettySize=auto;html=1;exitX=1;exitY=0;exitDx=0;exitDy=0;entryX=1;entryY=0.5;entryDx=0;entryDy=0;" edge="1" parent="1" source="P992E0XuD9_Mefu6UTS9-20" target="P992E0XuD9_Mefu6UTS9-41">
          <mxGeometry relative="1" as="geometry">
            <mxPoint x="780" y="1440" as="targetPoint" />
            <Array as="points">
              <mxPoint x="725" y="540" />
              <mxPoint x="800" y="540" />
              <mxPoint x="800" y="1405" />
            </Array>
          </mxGeometry>
        </mxCell>
        <mxCell id="P992E0XuD9_Mefu6UTS9-65" style="edgeStyle=orthogonalEdgeStyle;rounded=0;orthogonalLoop=1;jettySize=auto;html=1;exitX=0;exitY=0.75;exitDx=0;exitDy=0;entryX=0;entryY=0.25;entryDx=0;entryDy=0;" edge="1" parent="1" source="P992E0XuD9_Mefu6UTS9-32" target="P992E0XuD9_Mefu6UTS9-13">
          <mxGeometry relative="1" as="geometry" />
        </mxCell>
        <mxCell id="P992E0XuD9_Mefu6UTS9-66" style="edgeStyle=orthogonalEdgeStyle;rounded=0;orthogonalLoop=1;jettySize=auto;html=1;exitX=1;exitY=0.75;exitDx=0;exitDy=0;entryX=1;entryY=0.5;entryDx=0;entryDy=0;" edge="1" parent="1" source="P992E0XuD9_Mefu6UTS9-20" target="P992E0XuD9_Mefu6UTS9-38">
          <mxGeometry relative="1" as="geometry" />
        </mxCell>
        <mxCell id="P992E0XuD9_Mefu6UTS9-67" style="edgeStyle=orthogonalEdgeStyle;rounded=0;orthogonalLoop=1;jettySize=auto;html=1;exitX=0;exitY=0.25;exitDx=0;exitDy=0;entryX=1;entryY=0.25;entryDx=0;entryDy=0;" edge="1" parent="1" source="P992E0XuD9_Mefu6UTS9-20" target="P992E0XuD9_Mefu6UTS9-10">
          <mxGeometry relative="1" as="geometry" />
        </mxCell>
      </root>
    </mxGraphModel>
  </diagram>
</mxfile>
